<?xml version="1.0" encoding="utf-8"?>
<!-- Generator: Adobe Illustrator 22.0.1, SVG Export Plug-In . SVG Version: 6.00 Build 0)  -->
<svg width="170px" height="78px" version="1.1" id="Layer_1" xmlns="http://www.w3.org/2000/svg" xmlns:xlink="http://www.w3.org/1999/xlink" x="0px" y="0px"
	 viewBox="0 0 121.2 54.5" style="enable-background:new 0 0 121.2 54.5;" xml:space="preserve">
<g>
	<path d="M0.6,0.6h5.2v36.1h17.3V41H0.6V0.6z"/>
	<path d="M54.1,26.2c0,10.7-7.4,15.4-14.5,15.4c-7.9,0-13.9-5.8-13.9-14.9c0-9.7,6.4-15.4,14.4-15.4C48.5,11.3,54.1,17.4,54.1,26.2z
		 M31.1,26.5c0,6.4,3.7,11.2,8.8,11.2c5,0,8.8-4.7,8.8-11.3c0-4.9-2.5-11.2-8.7-11.2C33.8,15.3,31.1,21,31.1,26.5z"/>
	<path d="M85.8,12c-0.1,2.1-0.2,4.4-0.2,8v16.9c0,6.7-1.3,10.7-4.1,13.3c-2.8,2.6-6.9,3.5-10.6,3.5c-3.5,0-7.3-0.8-9.7-2.4l1.3-4
		c1.9,1.2,4.9,2.3,8.5,2.3c5.4,0,9.4-2.8,9.4-10.1V36h-0.1c-1.6,2.7-4.7,4.9-9.2,4.9c-7.2,0-12.4-6.1-12.4-14.2
		c0-9.8,6.4-15.4,13.1-15.4c5,0,7.8,2.6,9.1,5h0.1l0.2-4.4H85.8z M80.4,23.4c0-0.9-0.1-1.7-0.3-2.4c-1-3.1-3.5-5.6-7.4-5.6
		c-5,0-8.6,4.3-8.6,11c0,5.7,2.9,10.4,8.6,10.4c3.2,0,6.2-2,7.3-5.4c0.3-0.9,0.4-1.9,0.4-2.8V23.4z"/>
	<path d="M120.6,26.2c0,10.7-7.4,15.4-14.5,15.4c-7.9,0-13.9-5.8-13.9-14.9c0-9.7,6.4-15.4,14.4-15.4
		C115,11.3,120.6,17.4,120.6,26.2z M97.6,26.5c0,6.4,3.7,11.2,8.8,11.2c5,0,8.8-4.7,8.8-11.3c0-4.9-2.5-11.2-8.7-11.2
		C100.3,15.3,97.6,21,97.6,26.5z"/>
</g>
<g>
</g>
<g>
</g>
<g>
</g>
<g>
</g>
<g>
</g>
<g>
</g>
</svg>
